<?xml version="1.0" encoding="utf-8"?>
<!-- Generator: Adobe Illustrator 25.4.1, SVG Export Plug-In . SVG Version: 6.00 Build 0)  -->
<svg version="1.1" id="Layer_1" xmlns="http://www.w3.org/2000/svg" xmlns:xlink="http://www.w3.org/1999/xlink" x="0px" y="0px"
	 viewBox="0 0 1417.3 1417.3" style="enable-background:new 0 0 1417.3 1417.3;" xml:space="preserve">
<style type="text/css">
	.st0{fill:#FFFFFF;}
</style>
<g>
	<g>
		<path class="st0" d="M122.1,1205.6c-1.6-0.8-3.2-0.9-4.9-0.3c-1.7,0.5-2.9,1.6-3.7,3.3c-2.3,4.9-5.1,8.8-8.4,11.7
			c-3.3,2.9-7.9,5.1-13.9,6.6c-5,1.2-11.2,1.1-18.3-0.3c-7.2-1.4-13.4-3.8-18.8-7c2-4.1,3.8-9.2,5.5-15.3c1.7-6.1,2.9-11.3,3.8-15.7
			c0.8-4.4,1.9-10.5,3.3-18.4c1.5-9,2.7-15.7,3.7-20.2c0-0.6,0.2-1.9,0.7-3.9c0.3-1.8,0.5-3.2,0.7-4.1c13.3-6.3,23-13.7,29.1-22.3
			c6.1-8.6,8.8-16.6,8-23.9c-0.5-4.4-2-7.9-4.7-10.5c-2.7-2.6-5.9-3.9-9.7-3.9h-0.2c-10.5,0-18.5,6.1-23.8,18.3
			c-4,8.9-7.3,19.9-10.1,33.2c-6.3,2.4-13.3,4.4-21.1,6c-5.3,1.2-10.2,3.1-14.4,5.7c-4.3,2.6-7.5,5.5-9.7,8.6
			c-2.2,3.1-3.9,6.1-4.9,8.8c-1.1,2.7-1.7,5.3-1.8,7.8c-0.2,1.2,0,2.3,0.6,3.3c0.5,1,1.3,1.8,2.2,2.5c0.9,0.7,2,1,3.2,1
			c1.8,0.2,3.4-0.3,4.7-1.5c1.3-1.1,2-2.6,2.2-4.5c0-0.6,0.1-1.3,0.3-2.2c0.2-0.8,0.8-2.2,1.6-4c0.8-1.8,1.9-3.5,3.3-4.9
			c1.4-1.4,3.4-2.9,6.2-4.5c2.7-1.5,5.9-2.7,9.4-3.4c5.5-1.2,10.7-2.6,15.6-4.1c-0.9,4.6-2.1,11.4-3.7,20.4
			c-3.7,21.5-7.1,36.1-10.3,43.8c-9.3-7-18.2-9.1-26.6-6.2c-4.1,1.4-7.3,3.9-9.5,7.7c-2.2,3.7-3,7.8-2.4,12c0.5,2.4,1.4,4.7,2.7,6.9
			c1.4,2.1,3.6,3.9,6.8,5.4c3.1,1.5,6.8,2.2,11.1,2.2c8.6,0,15.7-3.1,21.3-9.2c11,6.9,23.1,10.3,36.4,10.3c4,0,7.6-0.4,11-1.1
			c8.4-2.3,14.9-5.5,19.4-9.7c4.5-4.2,8.3-9.4,11.3-15.5c0.8-1.7,0.8-3.4,0.2-5C124.8,1207.6,123.7,1206.4,122.1,1205.6z
			 M82.4,1104.8c3.1-7.2,7-10.8,11.9-10.8h0.2c0.8,0,1.3,1,1.6,3c0.2,2.3-0.3,4.9-1.5,7.8c-1.1,2.9-3.4,6.3-6.6,10.1
			c-3.3,3.8-7.4,7.3-12.5,10.3C77.5,1117.4,79.8,1110.7,82.4,1104.8z M25.8,1226.7c-4.9,0-7.5-1.2-7.8-3.7c-0.2-1.1,0.1-2.1,0.7-3.2
			c0.6-1.1,1.4-1.8,2.5-2.3c1.4-0.5,2.6-0.7,3.7-0.7c3.1,0,7,1.9,11.9,5.7C33.6,1225.3,29.9,1226.7,25.8,1226.7z"/>
		<path class="st0" d="M163.9,1153.2h-5.7h-5.5c-1.8,0-3.4,0.7-4.6,1.9c-1.2,1.3-1.8,2.8-1.8,4.5c0,3.1,1.4,5.1,4.1,6.2l-13.1,60.7
			h-0.5c-1.7,0-3.2,0.7-4.5,1.9c-1.3,1.3-1.9,2.8-1.9,4.6c0,1.8,0.6,3.3,1.9,4.6c1.3,1.3,2.8,1.9,4.5,1.9h5.3h0.2h0.2h0.2h5.3
			c1.8,0,3.4-0.6,4.6-1.9c1.2-1.3,1.8-2.9,1.8-4.7c0-2.9-1.4-4.9-4.1-6l13.1-60.7h0.5c1.7,0,3.2-0.6,4.5-1.9
			c1.3-1.3,1.9-2.8,1.9-4.6c0-1.8-0.6-3.3-1.9-4.6C167.1,1153.8,165.6,1153.2,163.9,1153.2z"/>
		<path class="st0" d="M232.1,1204.3c0-0.9-0.3-1.9-0.8-2.7c-0.6-0.9-1.6-1.6-2.6-2.1c-1.9-0.8-3.8-0.8-5.8-0.8c-2,0-4,0-6,0
			c-2.2,0-4.3,0-6.5,0c-1.3,0-2.7,0-4,0c-0.1,0-0.2,0-0.3,0c-1.8,0-3.4,0.7-4.6,1.9c-1.2,1.3-1.8,2.8-1.8,4.6c0,1.8,0.6,3.3,1.8,4.6
			c1.2,1.3,2.7,1.9,4.6,1.9h10.8c-4.1,9.9-10.6,14.8-19.5,14.7c-2.9-0.2-5.4-1-7.4-2.6c-2.1-1.6-3.5-3.7-4.2-6.2s-1.3-4.7-1.5-6.5
			c-0.2-1.8-0.3-3.6-0.3-5.3c0.3-9.3,3-17.7,8-25.2c6.6-9.6,12.4-14.4,17.4-14.4c4.6,0,7.5,1.1,8.7,3.2c1.7,2.7,1.1,6.6-1.8,11.7
			c-0.9,1.7-1.1,3.4-0.7,5c0.5,1.7,1.5,3,3,3.9c1.5,0.9,3.1,1.1,4.8,0.7c1.7-0.5,3-1.4,3.9-3c5.5-9.3,6.2-17.6,2.1-24.7
			c-3.7-6.6-10.2-9.9-19.7-9.9h-0.2c-9.5,0.2-18.9,6.9-28.2,20.2c-6.4,9.6-9.8,20.3-10.1,32.1c-0.2,10.1,2.1,18.2,6.8,24.4
			c4.7,6.2,11.1,9.4,19.4,9.7c0.1,0,0.4,0,0.7,0c2.9,0,5.8-0.4,8.7-1.3c2.9-0.8,6-2.3,9.4-4.5c3.4-2.1,6.5-5.5,9.3-10.1
			c1.8-2.9,3.2-5.9,4.4-9.1c0.6-1.6,1.1-3.1,1.6-4.7c0.2-0.7,0.3-1.5,0.5-2.2c0.2-0.9,0.4-1.8,0.4-2.7
			C232.1,1204.8,232.1,1204.5,232.1,1204.3z"/>
		<path class="st0" d="M356.8,1161c0-1.8-0.6-3.4-1.8-4.6c-1.2-1.2-2.7-1.8-4.6-1.8h-44.2c-1.5,0-2.9,0.5-4.1,1.5
			c-0.3-0.5-0.6-0.9-1.1-1.3c-0.8-0.8-1.9-1.2-3.1-1.4c-1.7-0.5-3.3-0.2-4.8,0.8c-1.5,1-2.4,2.3-2.7,4l-8.7,40.5h-25.9l8.2-37.8
			c0.1-1.1,0.1-2.2-0.2-3.3c-0.3-1.1-0.9-2.1-1.8-2.9c-0.9-0.8-1.9-1.2-3-1.4c-1.8-0.5-3.5-0.2-4.9,0.8c-1.5,1-2.4,2.3-2.9,4
			l-15.6,73.3c-0.5,1.8-0.2,3.5,0.8,4.9c1,1.5,2.3,2.4,4,2.9c0.5,0.2,0.9,0.2,1.4,0.2c1.5,0,2.9-0.5,4.1-1.5c1.2-1,2-2.3,2.3-3.8
			l4.8-22.5h25.7l-4.1,19.7c-0.5,1.8-0.2,3.5,0.8,4.9c1,1.5,2.3,2.4,4,2.9c0.5,0.2,0.9,0.2,1.4,0.2c1.5,0,2.9-0.5,4.1-1.5
			c1.2-1,2-2.3,2.3-3.8l14.8-68.5c1.2,1.1,2.7,1.6,4.2,1.6h14.2l-14.2,65.5c-0.3,1.8,0,3.5,1,4.9c1,1.5,2.3,2.4,4,2.9
			c0.5,0,0.9,0,1.4,0c1.5,0,2.9-0.5,4-1.4c1.1-0.9,1.9-2.1,2.4-3.7l14.7-68.3h16.7c1.8,0,3.4-0.6,4.6-1.8
			C356.2,1164.3,356.8,1162.8,356.8,1161z"/>
		<path class="st0" d="M418.9,1157.7c-0.3-1.1-0.9-2.1-1.7-2.9c-0.8-0.8-1.9-1.2-3.1-1.4c-1.7-0.5-3.3-0.2-4.8,0.8
			c-1.5,1-2.4,2.3-2.7,4l-8.7,40.5h-25.9l8.2-37.8c0.1-1.1,0.1-2.2-0.2-3.3c-0.3-1.1-0.9-2.1-1.8-2.9c-0.9-0.8-1.9-1.2-3-1.4
			c-1.8-0.5-3.5-0.2-4.9,0.8c-1.5,1-2.4,2.3-2.9,4l-15.6,73.3c-0.5,1.8-0.2,3.5,0.8,4.9c1,1.5,2.3,2.4,4,2.9
			c0.5,0.2,0.9,0.2,1.4,0.2c1.5,0,2.9-0.5,4.1-1.5c1.2-1,2-2.3,2.3-3.8l4.8-22.5h25.7l-4.1,19.7c-0.5,1.8-0.2,3.5,0.8,4.9
			c1,1.5,2.3,2.4,4,2.9c0.5,0.2,0.9,0.2,1.4,0.2c1.5,0,2.9-0.5,4.1-1.5c1.2-1,2-2.3,2.3-3.8l15.8-73.3
			C419.3,1159.9,419.2,1158.8,418.9,1157.7z"/>
		<path class="st0" d="M457.4,1154.8c-5.7-2.1-11.2-2.1-16.6,0c-5.4,2.1-9.7,6.1-12.7,11.9c-1.7,2.9-2.8,5.7-3.4,8.2
			c-5.7,9.2-8.5,19.2-8.5,30c0,10.8,2.4,19.2,7.3,25c5.3,6.4,11.8,9.6,19.2,9.6c2,0,4-0.3,6-0.9c4.4-1.1,8.6-3.3,12.4-6.8
			c3.8-3.4,7.1-7.9,9.9-13.3c2.7-5.4,4.8-11.6,6.2-18.4c2.3-11.5,1.4-21.2-2.7-29.3C470.2,1162.7,464.6,1157.4,457.4,1154.8z
			 M464.5,1197.4c-1.8,8.6-4.5,15.2-8,20c-3.5,4.8-7.2,7.8-11,8.8c-4.4,1.1-8.5-0.5-12.1-4.6c-1.8-2.1-3.1-5.6-3.8-10.5
			c-0.7-4.9-0.5-10.2,0.6-15.8c4,3.7,8.4,5.3,13.3,5c5.8-0.5,10.7-3.3,14.7-8.5c1.1-1.4,1.5-2.9,1.3-4.7c-0.2-1.8-1-3.2-2.4-4.4
			c-1.4-1.1-2.9-1.6-4.7-1.4c-1.8,0.2-3.2,1-4.2,2.4c-1.8,2.3-3.7,3.4-5.7,3.4c-1.2,0.2-2.5-0.5-3.9-1.8c-2.6-2.4-2.3-6.6,0.9-12.6
			c3.4-6.1,7.9-8.1,13.7-6c4.4,1.5,7.8,5.1,10.2,10.7C465.6,1183.2,466,1189.8,464.5,1197.4z"/>
		<path class="st0" d="M540.2,1154.7c-1.8-0.4-3.4-0.1-4.8,0.9c-1.5,1-2.4,2.3-2.9,4l-9.2,42.4c-0.9,4.7-1.9,8.7-3.1,11.9
			c-1.1,3.2-2.3,5.7-3.3,7.6c-1.1,1.8-2.3,3.2-3.7,4.2c-1.4,1-2.6,1.6-3.8,1.8c-1.1,0.2-2.6,0.3-4.5,0.3c-3.2,0-5.5-0.8-6.9-2.5
			c-2.1-2.6-2.7-6.4-1.6-11.5l11-51.5c0.3-1.2,0.3-2.4-0.1-3.4c-0.4-1.1-1-2-1.8-2.7c-0.8-0.8-1.8-1.3-2.9-1.6c-1.8-0.3-3.5,0-4.9,1
			c-1.5,1-2.4,2.3-2.9,4l-11,51.5c-0.3,1.2-0.5,2.7-0.7,4.6c-0.2,1.8,0.1,4.6,0.8,8.4c0.7,3.7,2,6.9,4,9.5c4,4.7,9.6,7.1,17,7.1
			c3.8,0,7.3-0.6,10.3-1.7c3.1-1.1,5.6-2.6,7.6-4.5c2-1.8,3.8-4.2,5.4-7c1.6-2.8,2.9-5.6,3.9-8.4c1-2.7,1.9-6,2.9-9.6
			c0-0.3,0.1-0.5,0.2-0.5l0.9-4.4l8.9-42.4c0.5-1.8,0.2-3.5-0.8-4.9C543.3,1156,542,1155.1,540.2,1154.7z"/>
		<path class="st0" d="M589.1,1155.7c-9.5-2.9-17.2-1.1-23.1,5.3c-2.9,2.9-4.8,6.5-5.6,10.7c-0.8,4.2-0.5,8.1,1,11.8
			c0.8,2,2,4,3.8,6.2c1.8,2.1,3.3,3.8,4.6,5c1.3,1.2,3.2,2.9,5.8,5c3.7,3.2,6.5,5.8,8.4,7.9c1.9,2.1,2.9,4.2,3.1,6.3
			c0.2,5.2-1.8,9.1-6,11.7c-4.4,2.9-9.2,3.1-14.4,0.7c-2-1.1-3.4-2.9-4.4-5.4s-0.8-5.1,0.2-7.7c0.8-1.7,0.8-3.3,0.1-4.9
			c-0.7-1.6-1.9-2.7-3.6-3.4c-1.7-0.7-3.3-0.7-4.9-0.1c-1.6,0.6-2.8,1.8-3.5,3.4c-2.3,5.5-2.4,11.2-0.5,17.1c2,5.9,5.6,10,10.8,12.5
			c4.1,2,8.3,3,12.6,3c5.3,0,10.2-1.4,14.7-4.1c3.8-2.6,6.8-5.9,8.8-10c2.1-4,3-8.4,2.9-13.2c-0.2-3.2-1.1-6.4-3-9.6
			c-1.8-3.2-3.6-5.6-5.4-7.3c-1.8-1.7-4.3-3.9-7.7-6.6c-6.1-5-9.6-8.8-10.5-11.2c-0.5-1.1-0.5-2.5-0.2-4.4c0.3-1.8,1.1-3.4,2.3-4.6
			c2.3-2.3,5.6-2.8,9.8-1.6c3.1,1.1,5.1,3,6.2,5.7c1.2,3.1,1.3,5.5,0.2,7.3c-0.9,1.5-1.1,3.2-0.7,4.9c0.5,1.8,1.4,3.1,3,3.9
			c1.5,0.8,3.1,1,4.8,0.6c1.7-0.5,3-1.4,3.9-3c3.2-5.3,3.5-11.5,0.9-18.3C601,1162.5,596.1,1158,589.1,1155.7z"/>
		<path class="st0" d="M667.7,1153.2h-36h-0.2c-0.5,0-0.8,0.1-1.1,0.2h-0.2c-0.5,0.2-0.8,0.2-0.9,0.2c-0.6,0.5-1,0.7-1,0.7
			c-0.1,0-0.4,0.2-1,0.7c-0.5,0.6-0.7,1-0.8,1c-0.1,0.1-0.2,0.3-0.3,0.6v0.2l-0.2,0.2c0,0.2-0.1,0.5-0.2,0.9l-0.2,0.2v0.2
			l-15.6,73.1v0.2c-0.2,0.8-0.2,1.2-0.2,1.3c0,0.1,0,0.1,0,0.1s0,0.1,0,0.2c0,0.5,0.1,0.8,0.2,0.9v0.5l0.2,0.7l0.7,1.1l0.7,0.9
			c0.6,0.5,1,0.7,1,0.8c0.1,0.1,0.3,0.2,0.6,0.3h0.2l0.2,0.2c0.1,0.2,0.5,0.2,0.9,0.2c0,0.2,0.1,0.2,0.2,0.2h0.2
			c0.5,0.2,0.8,0.2,1.1,0.2h36.2c1.7,0,3.2-0.6,4.5-1.9c1.3-1.3,1.9-2.8,1.9-4.6c0-1.8-0.6-3.3-1.9-4.6c-1.3-1.3-2.8-1.9-4.5-1.9
			h-28.2l3.2-14.7h20.2c1.8,0,3.4-0.6,4.7-1.9c1.3-1.3,1.9-2.8,1.9-4.6c0-1.8-0.7-3.3-1.9-4.6c-1.3-1.3-2.9-1.9-4.7-1.9h-17.4
			l7.1-32.5h30.7c1.8,0,3.4-0.6,4.6-1.9c1.2-1.3,1.8-2.8,1.8-4.6c0-1.8-0.6-3.3-1.8-4.6C671.1,1153.8,669.5,1153.2,667.7,1153.2z"/>
		<path class="st0" d="M860.5,1097.1c-0.7-0.9-1.6-1.5-2.9-1.8c-1.1-0.5-2.1-0.6-3.2-0.5c-1.1,0.2-2.1,0.6-3,1.4
			c-0.9,0.8-1.6,1.7-2.1,2.7c-1.1,3.1-3.4,5.7-7.1,8c-0.2-9-2.8-15.8-8-20.4c-4.3-3.8-9-6-14.1-6.6c-5.1-0.6-10,0.5-14.5,3.4
			c-5.2,3.2-8.9,7.8-11.1,13.9c-2.2,6-2.5,12-0.8,18c0.8,2.6,1.7,5,2.9,7.3c1.1,2.3,2.6,4.6,4.2,6.9c1.7,2.3,3.1,4.2,4.2,5.6
			c1.1,1.5,2.9,3.4,5.2,5.8c2.3,2.6,4,4.6,5,6c5.2,6.3,9.5,12.7,12.8,19.2c3.4,6.6,5.7,13.5,7,20.7c1.3,7.3,0.4,13.6-2.6,18.9
			c-5.8,10.8-14,17.6-24.5,20.2c-9.9,2.3-19.6,0.2-29.1-6.4c-4.7-3.4-8.3-8.3-10.7-14.8c-2.4-6.5-2.9-12.9-1.7-19.4
			c1.1-5.2,2.8-9.2,5.3-12.1c2.4-2.9,5.8-5,10.1-6.2c4.7-1.4,9.1-1.1,13.2,0.7c4,1.8,7,4.6,8.8,8.2c0.9,1.5,2.2,2.6,3.9,3.1
			c1.7,0.5,3.3,0.4,4.9-0.5c1.6-0.8,2.7-2.1,3.2-3.8c0.5-1.7,0.3-3.3-0.6-4.8c-3.4-6.7-8.6-11.5-15.6-14.4c-7-2.9-14.2-3.3-21.5-1.1
			c-13.1,4-21.2,13.4-24.3,28.4c-1.8,8.9-1.1,17.8,2.3,26.7c3.4,8.9,8.5,15.8,15.3,20.5c9,6.4,18.6,9.6,28.9,9.6
			c3.5,0,7-0.5,10.5-1.4c14.4-3.4,25.4-12.2,33-26.6c2.7-5.3,4.2-11.2,4.5-17.5c0.2-6.3-0.5-12.1-2.1-17.4
			c-1.6-5.3-3.9-10.7-6.8-16.3c-2.9-5.6-5.4-9.9-7.6-13.1c-2.1-3.1-4.4-6-6.6-8.6c-1.2-1.5-3.1-3.7-5.5-6.6c-2-2.1-3.5-3.8-4.5-5
			c-1-1.2-2.2-2.7-3.7-4.6c-1.5-1.8-2.6-3.6-3.4-5.4c-0.8-1.8-1.6-3.6-2.2-5.4c-0.9-3.5-0.7-6.9,0.7-10.2c1.4-3.3,3.3-5.7,5.7-7.2
			c4.4-2.7,8.8-2.1,13.1,1.8c2.4,2.1,3.7,5.8,3.8,10.9c0.1,5.1-0.8,9.6-2.6,13.4c-0.6,1.1-1.3,2.2-1.6,3.5c-0.4,1.2-0.4,2.5,0,3.7
			c0.5,1.7,1.8,3.1,3.4,3.8c1.1,0.5,2.4,0.7,3.7,0.6c1.2-0.1,2.4-0.4,3.3-1.1c0.7-0.5,1.3-1.2,1.5-2c0.1-0.4,0.1-0.7,0.3-1
			c0.3-0.4,0.5-0.9,0.8-1.3c1.2-2,4-4.3,8.2-6.9c2.4-1.5,4.4-2.8,5.7-3.8c1.4-1,3-2.6,4.9-4.9c1.9-2.3,3.4-4.8,4.5-7.6
			c0.3-1.2,0.4-2.4,0.2-3.4C861.6,1099,861.2,1098,860.5,1097.1z"/>
		<path class="st0" d="M906.7,1154.8c-5.7-2.1-11.2-2.1-16.6,0c-5.4,2.1-9.7,6.1-12.7,11.9c-1.7,2.9-2.8,5.7-3.4,8.2
			c-5.7,9.2-8.5,19.2-8.5,30c0,10.8,2.4,19.2,7.3,25c5.3,6.4,11.8,9.6,19.2,9.6c2,0,4-0.3,6-0.9c4.4-1.1,8.6-3.3,12.4-6.8
			c3.8-3.4,7.1-7.9,9.9-13.3c2.7-5.4,4.8-11.6,6.2-18.4c2.3-11.5,1.4-21.2-2.7-29.3C919.5,1162.7,913.9,1157.4,906.7,1154.8z
			 M913.8,1197.4c-1.8,8.6-4.5,15.2-8,20c-3.5,4.8-7.2,7.8-11,8.8c-4.4,1.1-8.5-0.5-12.1-4.6c-1.8-2.1-3.1-5.6-3.8-10.5
			c-0.7-4.9-0.5-10.2,0.6-15.8c4,3.7,8.4,5.3,13.3,5c5.8-0.5,10.7-3.3,14.7-8.5c1.1-1.4,1.5-2.9,1.3-4.7c-0.2-1.8-1-3.2-2.4-4.4
			c-1.4-1.1-2.9-1.6-4.7-1.4c-1.8,0.2-3.2,1-4.2,2.4c-1.8,2.3-3.7,3.4-5.7,3.4c-1.2,0.2-2.5-0.5-3.9-1.8c-2.6-2.4-2.3-6.6,0.9-12.6
			c3.4-6.1,7.9-8.1,13.7-6c4.4,1.5,7.8,5.1,10.2,10.7C914.9,1183.2,915.3,1189.8,913.8,1197.4z"/>
		<path class="st0" d="M993.6,1157.4c-1-1.4-2.4-2.4-4.1-2.7c-1.8-0.4-3.4-0.1-4.8,0.9c-1.5,1-2.4,2.3-2.9,4l-9.2,42.4
			c-0.9,4.7-1.9,8.7-3.1,11.9c-1.1,3.2-2.3,5.7-3.3,7.6c-1.1,1.8-2.3,3.2-3.7,4.2c-1.4,1-2.6,1.6-3.8,1.8c-1.1,0.2-2.6,0.3-4.5,0.3
			c-3.2,0-5.5-0.8-6.9-2.5c-2.1-2.6-2.7-6.4-1.6-11.5l11-51.5c0.3-1.2,0.3-2.4-0.1-3.4c-0.4-1.1-1-2-1.8-2.7
			c-0.8-0.8-1.8-1.3-2.9-1.6c-1.8-0.3-3.5,0-4.9,1c-1.5,1-2.4,2.3-2.9,4l-11,51.5c-0.3,1.2-0.5,2.7-0.7,4.6
			c-0.2,1.8,0.1,4.6,0.8,8.4c0.7,3.7,2,6.9,4,9.5c4,4.7,9.6,7.1,17,7.1c3.8,0,7.3-0.6,10.3-1.7c3.1-1.1,5.6-2.6,7.6-4.5
			c2-1.8,3.8-4.2,5.4-7c1.6-2.8,2.9-5.6,3.9-8.4c1-2.7,1.9-6,2.9-9.6c0-0.3,0.1-0.5,0.2-0.5l0.9-4.4l8.9-42.4
			C994.9,1160.5,994.6,1158.9,993.6,1157.4z"/>
		<path class="st0" d="M1055.2,1154.8c-0.8-0.8-1.8-1.2-2.9-1.4c-1.8-0.5-3.5-0.2-4.9,0.8c-1.5,1-2.4,2.3-2.9,4l-10.3,48.3
			l-14.2-48.8c-0.5-1.4-1.3-2.5-2.4-3.3c-1.1-0.8-2.5-1.3-4-1.3c-0.9,0-1.8,0.2-2.7,0.7c-0.9,0.5-1.6,1.1-2.2,1.8
			c-0.5,0.8-1,1.6-1.3,2.5l-15.6,73.3c-0.5,1.8-0.2,3.5,0.8,4.9c1,1.5,2.4,2.4,4.1,2.7c1.8,0.4,2.6,0.2,2.6,0.2s0.8-0.1,2.3-1
			c1.4-0.9,2.4-2.3,2.9-4.1l10.3-48.3c0,0.1,0.1,0.2,0.1,0.3c0.1,0.3,0.2,0.5,0.2,0.8c0.1,0.4,0.2,0.8,0.4,1.3
			c0.2,0.6,0.3,1.1,0.5,1.7c0.2,0.7,0.4,1.4,0.6,2.1c0.2,0.8,0.5,1.6,0.7,2.4c0.3,0.9,0.5,1.8,0.8,2.7c0.3,1,0.6,1.9,0.8,2.9
			c0.3,1,0.6,2,0.9,3c0.3,1.1,0.6,2.1,0.9,3.2c0.3,1.1,0.6,2.1,0.9,3.2c0.3,1.1,0.6,2.2,0.9,3.2c0.3,1.1,0.6,2.1,0.9,3.2
			c0.3,1,0.6,2.1,0.9,3.1c0.3,1,0.6,2,0.9,3c0.3,0.9,0.5,1.9,0.8,2.8c0.2,0.9,0.5,1.7,0.7,2.6c0.2,0.8,0.4,1.5,0.7,2.3
			c0.2,0.6,0.4,1.3,0.6,1.9c0.1,0.5,0.3,1,0.4,1.5c0.1,0.5,0.3,0.9,0.3,1.4c0,0.4,0.2,0.8,0.4,1.1c0.2,0.4,0.4,0.7,0.6,1
			c0.4,0.6,1,1.2,1.6,1.7c0.3,0.3,0.7,0.5,1.1,0.6c1.8,0.9,4.1,0.8,5.9-0.1c1.4-0.7,2.4-2,2.9-3.5c0.1-0.4,0.2-0.7,0.3-1.1
			c0-0.2,0.1-0.4,0.2-0.6c0-0.1,0.1-0.3,0.1-0.4c0.1-0.4,0.1-0.7,0.2-1.1c0.1-0.5,0.2-0.9,0.3-1.4c0.1-0.5,0.2-1.1,0.3-1.6
			c0.1-0.6,0.3-1.3,0.4-1.9c0.2-0.7,0.3-1.4,0.5-2.1c0.2-0.8,0.3-1.6,0.5-2.3c0.2-0.8,0.4-1.7,0.5-2.5c0.2-0.9,0.4-1.8,0.6-2.7
			c0.2-0.9,0.4-1.9,0.6-2.8c0.2-1,0.4-2,0.6-3c0.2-1,0.4-2,0.7-3.1c0.2-1,0.4-2.1,0.7-3.1c0.2-1.1,0.5-2.1,0.7-3.2
			c0.2-1.1,0.5-2.1,0.7-3.2c0.2-1.1,0.5-2.2,0.7-3.2c0.2-1.1,0.5-2.1,0.7-3.2c0.2-1.1,0.5-2.1,0.7-3.2c0.2-1,0.4-2.1,0.7-3.1
			c0.2-1,0.4-2,0.6-3c0.2-1,0.4-2,0.6-2.9c0.2-0.9,0.4-1.9,0.6-2.8c0.2-0.9,0.4-1.8,0.6-2.7c0.2-0.8,0.4-1.7,0.5-2.5
			c0.2-0.8,0.3-1.5,0.5-2.3c0.1-0.7,0.3-1.4,0.4-2.1c0.1-0.6,0.3-1.2,0.4-1.9c0.1-0.5,0.2-1.1,0.3-1.6c0.1-0.4,0.2-0.9,0.3-1.3
			c0.1-0.3,0.1-0.7,0.2-1c0-0.2,0.1-0.5,0.1-0.7c0-0.1,0-0.2,0.1-0.4c0.3-1.1,0.3-2.2-0.1-3.3
			C1056.7,1156.5,1056.1,1155.6,1055.2,1154.8z"/>
		<path class="st0" d="M1117,1168.4c-2.4-3.7-5-6.5-7.7-8.4c-2.7-1.8-5.7-3.3-9.2-4.5c-3.4-1.1-6.2-1.8-8.4-2.1
			c-2.1-0.2-4.2-0.3-6.2-0.3c-1.4,0-2.5,0.1-3.4,0.2c-3.1,0.3-5,2-5.7,5l-15.6,73.1c-0.5,2.1,0,4,1.3,5.6c1.3,1.6,2.9,2.4,4.9,2.4
			c20.8,0,36.2-6,46.3-18.1c8.9-10.8,11.8-24.2,8.9-40.1C1121.2,1176.5,1119.4,1172.2,1117,1168.4z M1103.2,1213.2
			c-6.1,7.3-15.4,11.6-27.9,12.8l12.8-59.8c12.2,0.8,19.3,6.6,21.3,17.4C1111.7,1195.6,1109.7,1205.4,1103.2,1213.2z"/>
		<path class="st0" d="M1237.3,1139.4c8.1,1.1,17.4-2.2,27.9-9.9c9,10.5,18.5,15.3,28.4,14.4c8.9-0.8,16.5-5.1,22.9-13.1
			c6.1-7.8,8.6-15.8,7.3-24.1c-1.7-12.5-8-20.8-19-24.7c-7.5-2.7-16.1-2.9-25.8-0.5c-9.7,2.4-18.1,6.9-25.3,13.3
			c-8.4,7.3-16,16.8-22.7,28.4c-0.9-0.8-2.2-1.8-3.9-3.2c-6.4-5.5-12.5-8.5-18.1-8.9c-3.4-0.3-6.9,0.4-10.5,2.2
			c-3.7,1.8-6.8,4.2-9.4,7.2c-4.9,6.1-6.1,12.8-3.7,20.2c0.3,1.1,0.9,2,1.7,2.7c0.8,0.8,1.8,1.3,2.9,1.5c1.1,0.2,2.2,0.2,3.4-0.1
			c1.7-0.5,2.9-1.5,3.8-3.1c0.8-1.6,1-3.2,0.3-4.9c-0.9-2.9-0.3-5.6,1.8-8.2c2.6-3.2,5.4-4.7,8.5-4.6c2.9,0.3,6.5,2.3,10.8,6
			c2.6,2.1,4.7,3.7,6.4,4.8c-6.3,13.4-10.1,26.8-11.5,40c-1.4,13.2,0.1,25.5,4.6,37c8.4,18.6,22.7,27.9,42.8,27.9
			c4,0,8.3-0.4,13.1-1.1c5.2-0.8,10.1-2.6,14.7-5.5c4.6-2.9,8.4-6.4,11.6-10.5c3.1-4.1,5.9-8.2,8.2-12.1c2.4-4,4.3-8.1,5.8-12.5
			c1.5-4.4,2.6-7.4,3.2-9.3c0.6-1.8,1-3.3,1.1-4.4c0.5-1.8,0.2-3.5-0.7-5c-0.9-1.5-2.3-2.4-4.1-2.7c-1.1-0.3-2.2-0.3-3.3,0.1
			c-1.1,0.4-2.1,1-2.9,1.7c-0.8,0.8-1.3,1.8-1.6,3c-0.2,1.1-0.5,2.6-1.1,4.6c-0.6,2-1.9,5.3-3.9,10.1c-2,4.7-4.2,9-6.5,12.8
			c-2.4,3.8-5.6,7.4-9.6,10.9c-4,3.4-8.4,5.5-12.9,6.3c-11.1,1.7-19.9,1-26.3-1.9c-6.4-3-11.6-8.9-15.6-17.8c-3.8-9.5-5-20-3.4-31.6
			C1228.2,1163.1,1231.8,1151.4,1237.3,1139.4z M1262.2,1104.8c5.5-4.9,11.9-8.4,19.2-10.4c7.3-2.1,13.7-2.1,19-0.1
			c6.1,2.1,9.6,7,10.5,14.4c0.8,4.6-0.8,9.2-4.6,14c-4.1,5.2-8.7,8-13.7,8.5c-6.6,0.5-13.6-4.4-21.1-14.4c-1.4-1.7-3.1-2.5-5.3-2.5
			c-1.4,0-2.7,0.4-3.9,1.1l-0.9,0.9c-7.8,5.7-13.4,8.9-17,9.8C1249.9,1117.4,1255.8,1110.3,1262.2,1104.8z"/>
		<path class="st0" d="M1368.5,1154.8c-5.7-2.1-11.2-2.1-16.6,0c-5.4,2.1-9.7,6.1-12.7,11.9c-1.7,2.9-2.8,5.7-3.4,8.2
			c-5.7,9.2-8.5,19.2-8.5,30c0,10.8,2.4,19.2,7.3,25c5.3,6.4,11.8,9.6,19.2,9.6c2,0,4-0.3,6-0.9c4.4-1.1,8.6-3.3,12.4-6.8
			c3.8-3.4,7.1-7.9,9.8-13.3c2.7-5.4,4.8-11.6,6.2-18.4c2.3-11.5,1.4-21.2-2.7-29.3C1381.4,1162.7,1375.7,1157.4,1368.5,1154.8z
			 M1375.6,1197.4c-1.8,8.6-4.5,15.2-8,20c-3.5,4.8-7.2,7.8-11,8.8c-4.4,1.1-8.5-0.5-12.1-4.6c-1.8-2.1-3.1-5.6-3.8-10.5
			c-0.7-4.9-0.5-10.2,0.6-15.8c4,3.7,8.4,5.3,13.3,5c5.8-0.5,10.7-3.3,14.7-8.5c1.1-1.4,1.5-2.9,1.3-4.7c-0.2-1.8-1-3.2-2.4-4.4
			c-1.4-1.1-2.9-1.6-4.7-1.4c-1.8,0.2-3.2,1-4.2,2.4c-1.8,2.3-3.7,3.4-5.7,3.4c-1.2,0.2-2.5-0.5-3.9-1.8c-2.6-2.4-2.3-6.6,0.9-12.6
			c3.4-6.1,7.9-8.1,13.7-6c4.4,1.5,7.8,5.1,10.2,10.7C1376.7,1183.2,1377.2,1189.8,1375.6,1197.4z"/>
		<path class="st0" d="M1415.5,1218.5c-1.2-1.2-2.7-1.8-4.5-1.8c-1.8,0-3.3,0.6-4.6,1.8c-1.3,1.2-1.9,2.8-1.9,4.6
			c0,1.8,0.6,3.4,1.9,4.6c1.3,1.2,2.8,1.8,4.6,1.8c1.8,0,3.2-0.6,4.5-1.8c1.2-1.2,1.8-2.7,1.8-4.6
			C1417.3,1221.2,1416.7,1219.7,1415.5,1218.5z"/>
	</g>
	<g id="Lighthouse_Plain_1_">
		<path class="st0" d="M708.7,445C708.7,445,708.7,445,708.7,445c72.7-1.6,68-106,0-106.5C640.6,339,636,443.4,708.7,445z
			 M701.5,363.7c37.3-8.4,51,45.7,14.4,56C678.5,428.1,664.9,374,701.5,363.7z"/>
		<path class="st0" d="M291.1,252.1L550.9,356c6.1,2.5,13.3-0.5,15.8-6.8c2.5-6.2-0.5-13.3-6.8-15.8L300.2,229.5
			C285.2,224,276.3,245.6,291.1,252.1z"/>
		<path class="st0" d="M583.2,451.7c-2.1-6.4-8.9-10-15.3-7.9l-276,88.7c-6.4,2.1-9.9,8.9-7.9,15.3c1.7,5.2,6.4,8.5,11.6,8.5
			c6.6-0.2,273.9-88.1,279.7-89.3C581.8,465,585.3,458.1,583.2,451.7z"/>
		<path class="st0" d="M539.8,421l-121.9,21.3c-4.4,0.8-7.4,5-6.6,9.4c0.7,4.4,5.1,7.4,9.4,6.6c0,0,121.9-21.3,121.9-21.3
			C553,434.9,550.4,419.5,539.8,421z"/>
		<path class="st0" d="M417.2,352.5l121.9,32.5c0.7,0.2,1.4,0.3,2.1,0.3c9.3,0,11.2-13.5,2.1-16c0,0-121.9-32.5-121.9-32.5
			C411,334.2,406.9,349.6,417.2,352.5z"/>
		<path class="st0" d="M541.2,393.5h-128c-10.7,0.3-10.7,16,0,16.3c0,0,128,0,128,0C551.8,409.5,551.9,393.7,541.2,393.5z"/>
		<path class="st0" d="M708.7,223c-3.9,0-6.7,1.9-6.7,1.9L578,306.9c-10,6.6-5.2,22.4,6.7,22.4c0,0,14.1,0,14.1,0
			c8.6,0,15.7,6.8,16.2,15.4l4,93.8c0.4,16.6-11.3,17.5-11.5,27.9c0,0,0,38.5,0,38.5c0,2.5,0.8,4.8,2,6.7c5.2,7.6,6.9,17.2,5.5,26.3
			L577.4,790c-1.8,11.9-12,20.7-24,20.7h-31.2c-5.7,0-10.7,4-11.9,9.6L491.7,907c-1.3,6.3,2.4,12.5,8.6,14.3L705.3,980
			c2.2,0.6,4.5,0.6,6.7,0c0,0,205.1-58.8,205.1-58.8c6.2-1.8,9.9-8,8.6-14.3L907,820.3c-1.2-5.6-6.2-9.6-11.9-9.6h-31.2
			c-12,0-22.2-8.8-24-20.7l-37.7-252.2c-1.4-9.1,0.3-18.7,5.5-26.3c1.3-1.9,2-4.2,2-6.7v-38.5c0-3.4-1.4-6.4-3.6-8.6
			c-5.2-5.2-8.3-12-8-19.3l4-93.8c0.5-8.6,7.6-15.4,16.2-15.4h14.1c11.8,0.2,16.8-15.9,6.7-22.4c0,0-123.9-82.1-123.9-82.1
			S712.5,223,708.7,223z M712.5,252.2l60.5,40.1c5.7,3.8,3,12.7-3.8,12.7h-60.5c0,0-60.5,0-60.5,0c-6.8,0-9.5-8.9-3.8-12.7
			l60.5-40.1C707.2,250.6,710.2,250.6,712.5,252.2z M708.7,585.4c0,0-61.7,0-61.7,0c-7.5,0-13.3-6.7-12.2-14.2
			c0.9-6,6.1-10.5,12.2-10.5c0,0,61.7,0,61.7,0c0,0,61.7,0,61.7,0c6.1,0,11.3,4.5,12.2,10.5c1.1,7.5-4.7,14.2-12.2,14.2H708.7z
			 M708.7,517c0,0,57.5,0,57.5,0c4.8,0,8.9,3.5,9.6,8.2c0.9,5.8-3.7,11.1-9.6,11.1c0,0-57.5,0-57.5,0c0,0-57.5,0-57.5,0
			c-5.9,0-10.4-5.3-9.6-11.1c0.7-4.7,4.8-8.2,9.6-8.2H708.7z M708.7,492.7c0,0-69.7,0-69.7,0c-3.9,0-7.1-3.2-7.1-7.1
			c0-3.9,3.2-7.1,7.1-7.1c0,0,69.7,0,69.7,0c0,0,69.7,0,69.7,0c3.9,0,7.1,3.2,7.1,7.1c0,3.9-3.2,7.1-7.1,7.1H708.7z M708.7,329.3
			c0,0,55.1,0,55.1,0c8.1,0,14.5,6.8,14.1,14.9l-5,95c-0.4,8.4-7.4,15-15.8,15c-24.1,0-72.7,0-96.8,0c-8.4,0-15.4-6.6-15.8-15l-5-95
			c-0.4-8.1,6-14.9,14.1-14.9H708.7z M626.6,625.7c1.4-9.2,9.2-15.9,18.5-15.9h63.6c0,0,63.6,0,63.6,0c9.3,0,17.1,6.8,18.5,15.9
			l24.4,163.4c1.7,11.3-7.1,21.5-18.5,21.5c-43.9,0-132.2,0-176.1,0c-11.4,0-20.2-10.2-18.5-21.5L626.6,625.7z M708.7,955.6
			l-175.9-50.4c-8.4-2.4-13.5-10.9-11.6-19.4L531,840c0.6-2.9,3.2-5,6.2-5c4,0,7,3.6,6.2,7.5l-7.5,40.3c-0.8,4.4,2.1,8.6,6.5,9.5
			c4.3,0.8,8.7-2.1,9.5-6.5c0,0,8.5-45.7,8.5-45.7c0.6-3,3.2-5.2,6.2-5.2h6.9c3.8,0,6.8,3.4,6.3,7.2l-7.1,52.3
			c-1.3,10.6,14.5,12.8,16.1,2.2c0,0,7.6-56.2,7.6-56.2c0.4-3.1,3.1-5.5,6.3-5.5h6.9c3.7,0,6.6,3.2,6.3,6.9l-5.6,63.5
			c-0.7,10.7,15,12.1,16.2,1.4c0,0,5.8-66,5.8-66c0.3-3.3,3-5.8,6.3-5.8H655c3.7,0,6.6,3.1,6.3,6.8l-5,76.5
			c-0.3,4.5,3.1,8.3,7.6,8.6c4.4,0.3,8.4-3.1,8.6-7.6c0,0,5.1-78.4,5.1-78.4c0.2-3.3,3-5.9,6.3-5.9h10.2c3.5,0,6.3,2.8,6.3,6.3v85
			c0,4.5,3.6,8.1,8.1,8.1c4.5,0,8.1-3.6,8.1-8.1v-85c0-3.5,2.8-6.3,6.3-6.3h10.2c3.3,0,6.1,2.6,6.3,5.9l5.1,78.4
			c0.3,4.5,4.2,7.9,8.6,7.6c4.5-0.3,7.9-4.2,7.6-8.6l-5-76.5c-0.2-3.7,2.7-6.8,6.3-6.8h16.3c3.3,0,6,2.5,6.3,5.8l5.8,66
			c0.4,4.2,3.9,7.4,8.1,7.4c4.7,0,8.6-4.1,8.1-8.8c0,0-5.6-63.5-5.6-63.5c-0.3-3.7,2.6-6.9,6.3-6.9h6.9c3.2,0,5.9,2.3,6.3,5.5
			l7.6,56.2c0.6,4.5,4.8,7.6,9.1,7c4.4-0.6,7.6-4.7,7-9.1l-7.1-52.3c-0.5-3.8,2.4-7.2,6.3-7.2h6.9c3.1,0,5.7,2.2,6.2,5.2l8.5,45.7
			c0.8,4.4,5.2,7.3,9.5,6.5c4.4-0.8,7.3-5.1,6.5-9.5l-7.5-40.3c-0.7-3.9,2.3-7.5,6.2-7.5c3,0,5.6,2.1,6.2,5l9.8,45.8
			c1.8,8.5-3.3,17-11.6,19.4L708.7,955.6z"/>
		<path class="st0" d="M861.9,356.9c1.5,0,3-0.3,4.5-0.9l259.7-103.9c6.3-2.5,9.3-9.6,6.8-15.8c-2.5-6.3-9.6-9.3-15.8-6.8
			L857.4,333.4C845,338.4,848.7,356.9,861.9,356.9z"/>
		<path class="st0" d="M1125.4,532.5l-276-88.7c-6.4-2.1-13.3,1.5-15.3,7.9c-2.1,6.4,1.5,13.3,7.9,15.3
			c9.2,2.3,269.2,87.8,279.7,89.3C1135.3,556.3,1138.6,536.9,1125.4,532.5z"/>
		<path class="st0" d="M877.5,421c-10.6-1.6-13.3,13.9-2.8,16c0,0,121.9,21.3,121.9,21.3c4.3,0.8,8.7-2.2,9.4-6.6
			c0.8-4.4-2.2-8.6-6.6-9.4L877.5,421z"/>
		<path class="st0" d="M876.2,385.3c3.6-0.1,120.8-32.3,124-32.8c10.2-2.9,6.3-18.3-4.2-15.7c0,0-121.9,32.5-121.9,32.5
			C865,371.8,866.8,385.4,876.2,385.3z"/>
		<path class="st0" d="M1012.2,401.6c0-4.5-3.6-8.1-8.1-8.1h-128c-4.5,0-8.1,3.6-8.1,8.1s3.6,8.1,8.1,8.1h128
			C1008.6,409.7,1012.2,406.1,1012.2,401.6z"/>
	</g>
</g>
</svg>
